<?xml version="1.0" encoding="UTF-8"?>
<!DOCTYPE svg PUBLIC "-//W3C//DTD SVG 1.1//EN" "http://www.w3.org/Graphics/SVG/1.1/DTD/svg11.dtd">
<!-- Creator: CorelDRAW 2018 (64-Bit) -->
<svg xmlns="http://www.w3.org/2000/svg" xml:space="preserve" width="4.72mm" height="4.72mm" version="1.1" style="shape-rendering:geometricPrecision; text-rendering:geometricPrecision; image-rendering:optimizeQuality; fill-rule:evenodd; clip-rule:evenodd"
viewBox="0 0 472 472"
 xmlns:xlink="http://www.w3.org/1999/xlink">
 <defs>
  <style type="text/css">
   <![CDATA[
    .fil0 {fill:#FEFEFE}
    .fil1 {fill:#2D2B2D;fill-rule:nonzero}
   ]]>
  </style>
 </defs>
 <g id="Layer_x0020_1">
  <metadata id="CorelCorpID_0Corel-Layer"/>
  <circle class="fil0" cx="236" cy="236" r="225"/>
  <path class="fil1" d="M236 1c64.88,0 123.65,26.31 166.17,68.83 42.52,42.52 68.83,101.29 68.83,166.17 0,64.88 -26.31,123.65 -68.83,166.17 -42.52,42.52 -101.29,68.83 -166.17,68.83 -64.88,0 -123.65,-26.31 -166.17,-68.83 -42.52,-42.52 -68.83,-101.29 -68.83,-166.17 0,-64.88 26.31,-123.65 68.83,-166.17 42.52,-42.52 101.29,-68.83 166.17,-68.83zm152.03 82.97c-38.9,-38.9 -92.66,-62.97 -152.03,-62.97 -59.37,0 -113.13,24.07 -152.03,62.97 -38.9,38.9 -62.97,92.66 -62.97,152.03 0,59.37 24.07,113.13 62.97,152.03 38.9,38.9 92.66,62.97 152.03,62.97 59.37,0 113.13,-24.07 152.03,-62.97 38.9,-38.9 62.97,-92.66 62.97,-152.03 0,-59.37 -24.07,-113.13 -62.97,-152.03z"/>
 </g>
</svg>
