<?xml version="1.0" encoding="UTF-8"?>
<!DOCTYPE svg PUBLIC "-//W3C//DTD SVG 1.1//EN" "http://www.w3.org/Graphics/SVG/1.1/DTD/svg11.dtd">
<!-- Creator: CorelDRAW 2018 (64-Bit) -->
<svg xmlns="http://www.w3.org/2000/svg" xml:space="preserve" width="4.72mm" height="4.72mm" version="1.1" style="shape-rendering:geometricPrecision; text-rendering:geometricPrecision; image-rendering:optimizeQuality; fill-rule:evenodd; clip-rule:evenodd"
viewBox="0 0 472 472"
 xmlns:xlink="http://www.w3.org/1999/xlink">
 <defs>
  <style type="text/css">
   <![CDATA[
    .fil0 {fill:#2D2B2D;fill-rule:nonzero}
   ]]>
  </style>
 </defs>
 <g id="Layer_x0020_1">
  <metadata id="CorelCorpID_0Corel-Layer"/>
  <path class="fil0" d="M76 1l320 0c20.64,0 39.4,8.44 52.98,22.02 13.58,13.58 22.02,32.34 22.02,52.98l0 320c0,20.64 -8.44,39.4 -22.02,52.98 -13.58,13.58 -32.34,22.02 -52.98,22.02l-320 0c-20.64,0 -39.4,-8.44 -52.98,-22.02 -13.58,-13.58 -22.02,-32.34 -22.02,-52.98l0 -320c0,-20.64 8.44,-39.4 22.02,-52.98 13.58,-13.58 32.34,-22.02 52.98,-22.02zm320 20l-320 0c-15.12,0 -28.87,6.19 -38.84,16.16 -9.97,9.97 -16.16,23.72 -16.16,38.84l0 320c0,15.12 6.19,28.87 16.16,38.84 9.97,9.97 23.72,16.16 38.84,16.16l320 0c15.12,0 28.87,-6.19 38.84,-16.16 9.97,-9.97 16.16,-23.72 16.16,-38.84l0 -320c0,-15.12 -6.19,-28.87 -16.16,-38.84 -9.97,-9.97 -23.72,-16.16 -38.84,-16.16z"/>
  <path class="fil0" d="M60.4 275.12c-7.16,-8.37 -6.18,-20.97 2.19,-28.13 8.37,-7.16 20.97,-6.18 28.13,2.19l86.03 100.01 203.75 -270.21c6.64,-8.8 19.17,-10.55 27.97,-3.91 8.8,6.64 10.55,19.17 3.91,27.97l-218.66 289.98c-0.87,1.12 -1.85,2.17 -2.97,3.13 -8.37,7.16 -20.97,6.18 -28.13,-2.19l-102.22 -118.84z"/>
 </g>
</svg>
